<svg xmlns="http://www.w3.org/2000/svg" viewBox="0 0 32 32" role="img" aria-label="Fire">
  <defs>
    <linearGradient id="outer" x1="16" y1="2" x2="16" y2="30" gradientUnits="userSpaceOnUse">
      <stop stop-color="#FFD54A"/>
      <stop offset=".42" stop-color="#FF8A24"/>
      <stop offset="1" stop-color="#E53920"/>
    </linearGradient>
    <linearGradient id="inner" x1="16" y1="11" x2="16" y2="27" gradientUnits="userSpaceOnUse">
      <stop stop-color="#FFF59D"/>
      <stop offset=".55" stop-color="#FFD54A"/>
      <stop offset="1" stop-color="#FF8A24"/>
    </linearGradient>
  </defs>
  <path fill="url(#outer)" d="M17.1 2.1c1.1 5.2-2.2 7.2-1.4 10.3.5 2 2.6 2.7 3.8 1.2 1.1-1.4.7-3.8-.2-5.5 4.9 3.1 8.2 8.2 8.2 13.2C27.5 27.2 22.4 31 16 31S4.5 27.2 4.5 21.3c0-5.1 3.2-9.2 7.2-12.7-.2 3.1.5 5.4 2 5.8 1.8.5 2.5-2.4 2.3-4.7-.2-2.6.3-5 1.1-7.6Z"/>
  <path fill="url(#inner)" d="M16.3 12.1c.6 3.2-1.1 5.1-2.3 7.2-1.1 2-.2 4.8 2.1 5.5 2.7.8 5-1.2 5-3.8 0-2.5-1.7-4.9-4.8-7.3Z"/>
</svg>